<svg width="2560" height="1440" viewBox="0 0 2560 1440" fill="none" xmlns="http://www.w3.org/2000/svg">
  <defs>
    <!-- Warm gold glow centred left of the safe zone -->
    <radialGradient id="bannerGlow" cx="30%" cy="50%" r="35%">
      <stop offset="0%" stop-color="#F5A623" stop-opacity="0.12"/>
      <stop offset="100%" stop-color="#F5A623" stop-opacity="0"/>
    </radialGradient>
    <radialGradient id="centerNodeGrad" cx="50%" cy="50%" r="50%">
      <stop offset="0%"   stop-color="#F5A623" stop-opacity="1"/>
      <stop offset="55%"  stop-color="#E8920A" stop-opacity="1"/>
      <stop offset="100%" stop-color="#C97A08" stop-opacity="1"/>
    </radialGradient>
  </defs>

  <!-- ═══════════════════════════════════════════════════════════ -->
  <!--  BACKGROUND                                                 -->
  <!-- ═══════════════════════════════════════════════════════════ -->
  <rect width="2560" height="1440" fill="#0A1628"/>

  <!-- Large ambient glow on left third (where the logo sits) -->
  <ellipse cx="780" cy="720" rx="680" ry="580" fill="url(#bannerGlow)"/>

  <!-- ───────────────────────────────────────────────────────── -->
  <!--  BACKGROUND NETWORK NODES  (scattered, very subtle)       -->
  <!--  Avoids the safe-zone centre so it doesn't clash with text -->
  <!-- ───────────────────────────────────────────────────────── -->

  <!-- Top strip (y 0–480) -->
  <circle cx="195"  cy="185" r="3"   fill="#F5A623" opacity="0.22"/>
  <circle cx="465"  cy="98"  r="2.5" fill="#F5A623" opacity="0.18"/>
  <circle cx="760"  cy="225" r="2.5" fill="white"   opacity="0.14"/>
  <circle cx="1085" cy="112" r="2"   fill="white"   opacity="0.12"/>
  <circle cx="1360" cy="242" r="2.5" fill="#F5A623" opacity="0.16"/>
  <circle cx="1605" cy="130" r="2"   fill="white"   opacity="0.12"/>
  <circle cx="1875" cy="205" r="3"   fill="#F5A623" opacity="0.18"/>
  <circle cx="2140" cy="118" r="2"   fill="white"   opacity="0.12"/>
  <circle cx="2385" cy="248" r="2.5" fill="#F5A623" opacity="0.18"/>
  <circle cx="2510" cy="152" r="2"   fill="white"   opacity="0.10"/>

  <circle cx="318"  cy="372" r="2"   fill="white"   opacity="0.10"/>
  <circle cx="640"  cy="295" r="2"   fill="#F5A623" opacity="0.14"/>
  <circle cx="1220" cy="385" r="2"   fill="white"   opacity="0.10"/>
  <circle cx="1510" cy="310" r="2"   fill="white"   opacity="0.10"/>
  <circle cx="2045" cy="395" r="2"   fill="#F5A623" opacity="0.14"/>
  <circle cx="2310" cy="335" r="2"   fill="white"   opacity="0.10"/>
  <circle cx="2520" cy="415" r="2"   fill="white"   opacity="0.08"/>

  <!-- Left & right flanks (outside safe zone x < 507, x > 2053) -->
  <circle cx="78"   cy="580" r="2.5" fill="#F5A623" opacity="0.18"/>
  <circle cx="168"  cy="780" r="2"   fill="white"   opacity="0.12"/>
  <circle cx="88"   cy="970" r="2.5" fill="#F5A623" opacity="0.16"/>
  <circle cx="2482" cy="600" r="2.5" fill="#F5A623" opacity="0.18"/>
  <circle cx="2395" cy="800" r="2"   fill="white"   opacity="0.12"/>
  <circle cx="2490" cy="995" r="2.5" fill="#F5A623" opacity="0.16"/>

  <!-- Bottom strip (y 960–1440) -->
  <circle cx="180"  cy="1025" r="3"   fill="#F5A623" opacity="0.20"/>
  <circle cx="445"  cy="1135" r="2.5" fill="white"   opacity="0.14"/>
  <circle cx="725"  cy="1018" r="2.5" fill="#F5A623" opacity="0.16"/>
  <circle cx="1005" cy="1148" r="2"   fill="white"   opacity="0.12"/>
  <circle cx="1265" cy="1025" r="2.5" fill="#F5A623" opacity="0.16"/>
  <circle cx="1535" cy="1138" r="2"   fill="white"   opacity="0.12"/>
  <circle cx="1795" cy="1022" r="3"   fill="#F5A623" opacity="0.18"/>
  <circle cx="2055" cy="1140" r="2.5" fill="white"   opacity="0.14"/>
  <circle cx="2320" cy="1025" r="2"   fill="#F5A623" opacity="0.14"/>
  <circle cx="2508" cy="1115" r="2.5" fill="white"   opacity="0.12"/>

  <circle cx="285"  cy="1285" r="2"   fill="white"   opacity="0.10"/>
  <circle cx="565"  cy="1375" r="2.5" fill="#F5A623" opacity="0.14"/>
  <circle cx="875"  cy="1255" r="2"   fill="white"   opacity="0.10"/>
  <circle cx="1145" cy="1368" r="2.5" fill="#F5A623" opacity="0.12"/>
  <circle cx="1415" cy="1258" r="2"   fill="white"   opacity="0.10"/>
  <circle cx="1675" cy="1372" r="2"   fill="white"   opacity="0.08"/>
  <circle cx="1955" cy="1260" r="2.5" fill="#F5A623" opacity="0.12"/>
  <circle cx="2215" cy="1380" r="2"   fill="white"   opacity="0.10"/>
  <circle cx="2455" cy="1268" r="2.5" fill="#F5A623" opacity="0.12"/>

  <!-- Background connecting lines (extremely subtle) -->
  <line x1="195"  y1="185"  x2="318"  y2="372"  stroke="white" stroke-width="1" stroke-opacity="0.06"/>
  <line x1="465"  y1="98"   x2="640"  y2="295"  stroke="white" stroke-width="1" stroke-opacity="0.05"/>
  <line x1="195"  y1="185"  x2="465"  y2="98"   stroke="white" stroke-width="1" stroke-opacity="0.05"/>
  <line x1="1875" y1="205"  x2="2045" y2="395"  stroke="white" stroke-width="1" stroke-opacity="0.05"/>
  <line x1="2385" y1="248"  x2="2310" y2="335"  stroke="white" stroke-width="1" stroke-opacity="0.05"/>
  <line x1="78"   y1="580"  x2="168"  y2="780"  stroke="white" stroke-width="1" stroke-opacity="0.06"/>
  <line x1="168"  y1="780"  x2="88"   y2="970"  stroke="white" stroke-width="1" stroke-opacity="0.06"/>
  <line x1="2482" y1="600"  x2="2395" y2="800"  stroke="white" stroke-width="1" stroke-opacity="0.06"/>
  <line x1="2395" y1="800"  x2="2490" y2="995"  stroke="white" stroke-width="1" stroke-opacity="0.06"/>
  <line x1="180"  y1="1025" x2="285"  y2="1285" stroke="white" stroke-width="1" stroke-opacity="0.05"/>
  <line x1="725"  y1="1018" x2="875"  y2="1255" stroke="white" stroke-width="1" stroke-opacity="0.05"/>
  <line x1="1795" y1="1022" x2="1955" y2="1260" stroke="white" stroke-width="1" stroke-opacity="0.05"/>
  <line x1="2320" y1="1025" x2="2455" y2="1268" stroke="white" stroke-width="1" stroke-opacity="0.05"/>

  <!-- ═══════════════════════════════════════════════════════════ -->
  <!--  SAFE-ZONE REFERENCE (invisible — for layout guide)        -->
  <!--  x: 507–2053,  y: 508–931   (1546 × 423 px)               -->
  <!-- ═══════════════════════════════════════════════════════════ -->

  <!-- ───────────────────────────────────────────────────────── -->
  <!--  CC LOGO MARK                                             -->
  <!--  Scale 12×,  center at (760, 720)                         -->
  <!--  Offset dx = 760 – 14×12 = 592,  dy = 720 – 14×12 = 552  -->
  <!--  TL(4,8)→(640,648)  TR(24,8)→(880,648)                    -->
  <!--  BL(4,20)→(640,792) BR(24,20)→(880,792)                   -->
  <!-- ───────────────────────────────────────────────────────── -->

  <!-- Spokes: center → corners -->
  <line x1="760" y1="720" x2="640" y2="648" stroke="white" stroke-width="5" stroke-opacity="0.52" stroke-linecap="round"/>
  <line x1="760" y1="720" x2="880" y2="648" stroke="white" stroke-width="5" stroke-opacity="0.52" stroke-linecap="round"/>
  <line x1="760" y1="720" x2="640" y2="792" stroke="white" stroke-width="5" stroke-opacity="0.52" stroke-linecap="round"/>
  <line x1="760" y1="720" x2="880" y2="792" stroke="white" stroke-width="5" stroke-opacity="0.52" stroke-linecap="round"/>

  <!-- Gold horizontal bridges -->
  <line x1="640" y1="648" x2="880" y2="648" stroke="#F5A623" stroke-width="3.5" stroke-opacity="0.42" stroke-linecap="round"/>
  <line x1="640" y1="792" x2="880" y2="792" stroke="#F5A623" stroke-width="3.5" stroke-opacity="0.42" stroke-linecap="round"/>

  <!-- Corner nodes (white) -->
  <circle cx="640" cy="648" r="20" fill="white"/>
  <circle cx="880" cy="648" r="20" fill="white"/>
  <circle cx="640" cy="792" r="20" fill="white"/>
  <circle cx="880" cy="792" r="20" fill="white"/>

  <!-- Center node (gold gradient) -->
  <circle cx="760" cy="720" r="32" fill="url(#centerNodeGrad)"/>
  <circle cx="753" cy="713" r="10" fill="white" opacity="0.22"/>

  <!-- ───────────────────────────────────────────────────────── -->
  <!--  VERTICAL GOLD ACCENT LINE                               -->
  <!-- ───────────────────────────────────────────────────────── -->
  <line x1="955" y1="590" x2="955" y2="870" stroke="#F5A623" stroke-width="2" stroke-opacity="0.45"/>

  <!-- ───────────────────────────────────────────────────────── -->
  <!--  TEXT BLOCK  (x starts at 990, within safe zone)         -->
  <!-- ───────────────────────────────────────────────────────── -->

  <!-- "Chartered Connects"  -->
  <text
    x="990" y="666"
    font-family="'Inter', 'Helvetica Neue', Arial, sans-serif"
    font-size="86"
    font-weight="800"
    fill="white"
    letter-spacing="-1">Chartered Connects</text>

  <!-- Gold divider line -->
  <rect x="990" y="690" width="700" height="4" fill="#F5A623" opacity="0.55" rx="2"/>

  <!-- Tagline -->
  <text
    x="990" y="758"
    font-family="'Inter', 'Helvetica Neue', Arial, sans-serif"
    font-size="50"
    font-weight="600"
    fill="#F5A623">Inspire. Learn. Lead.</text>

  <!-- Subtitle -->
  <text
    x="990" y="818"
    font-family="'Inter', 'Helvetica Neue', Arial, sans-serif"
    font-size="34"
    font-weight="400"
    fill="white"
    opacity="0.72">India's Community for Chartered Accountants</text>

  <!-- Website URL -->
  <text
    x="990" y="874"
    font-family="'Inter', 'Helvetica Neue', Arial, sans-serif"
    font-size="28"
    font-weight="500"
    fill="#F5A623"
    opacity="0.80">charteredconnects.com</text>

  <!-- ───────────────────────────────────────────────────────── -->
  <!--  NEW EPISODES badge  (top-right of safe zone)            -->
  <!-- ───────────────────────────────────────────────────────── -->
  <rect x="1820" y="568" width="215" height="48" rx="24" fill="#F5A623" opacity="0.12"/>
  <rect x="1820" y="568" width="215" height="48" rx="24" fill="none" stroke="#F5A623" stroke-width="1.5" stroke-opacity="0.35"/>
  <text
    x="1928" y="600"
    text-anchor="middle"
    font-family="'Inter', 'Helvetica Neue', Arial, sans-serif"
    font-size="22"
    font-weight="600"
    fill="#F5A623"
    opacity="0.90">New episodes weekly</text>
</svg>
